<svg width="1120" height="420" viewBox="0 0 1120 420" fill="none" xmlns="http://www.w3.org/2000/svg">
  <rect width="1120" height="420" fill="#111827"/>
  <rect x="52" y="48" width="1016" height="324" rx="24" fill="#0B1020" stroke="#273244"/>
  <text x="86" y="100" fill="#7DD3FC" font-family="-apple-system,BlinkMacSystemFont,'Segoe UI','PingFang SC','Microsoft YaHei',sans-serif" font-size="17" font-weight="900" letter-spacing="2">SHIPSHAPE</text>
  <text x="86" y="170" fill="#FFFFFF" font-family="-apple-system,BlinkMacSystemFont,'Segoe UI','PingFang SC','Microsoft YaHei',sans-serif" font-size="46" font-weight="900">AI coding agent 的交接检查器</text>
  <text x="88" y="214" fill="#B6C2D1" font-family="-apple-system,BlinkMacSystemFont,'Segoe UI','PingFang SC','Microsoft YaHei',sans-serif" font-size="20">当 Claude Code / Codex / Cursor 说 done，先看工作区到底发生了什么。</text>
  <g transform="translate(86 260)" font-family="-apple-system,BlinkMacSystemFont,'Segoe UI','PingFang SC','Microsoft YaHei',sans-serif">
    <rect width="160" height="42" rx="10" fill="#182235" stroke="#2C3A51"/>
    <text x="18" y="27" fill="#DCE8F5" font-size="15" font-weight="800">changed files</text>
    <rect x="176" width="132" height="42" rx="10" fill="#182235" stroke="#2C3A51"/>
    <text x="194" y="27" fill="#DCE8F5" font-size="15" font-weight="800">risk flags</text>
    <rect x="324" width="154" height="42" rx="10" fill="#182235" stroke="#2C3A51"/>
    <text x="342" y="27" fill="#DCE8F5" font-size="15" font-weight="800">verify next</text>
  </g>
  <g transform="translate(708 84)" font-family="ui-monospace,SFMono-Regular,Menlo,Consolas,monospace">
    <rect width="296" height="234" rx="18" fill="#F8FAFC"/>
    <rect width="296" height="42" rx="18" fill="#E5EAF1"/>
    <circle cx="24" cy="21" r="6" fill="#EF4444"/>
    <circle cx="44" cy="21" r="6" fill="#F59E0B"/>
    <circle cx="64" cy="21" r="6" fill="#22C55E"/>
    <text x="22" y="78" fill="#0F172A" font-size="16" font-weight="800">shipshape report</text>
    <rect x="22" y="104" width="252" height="1" fill="#D7DEE8"/>
    <text x="22" y="136" fill="#334155" font-size="14">+ src/app.ts</text>
    <text x="22" y="164" fill="#334155" font-size="14">! package-lock.json</text>
    <text x="22" y="192" fill="#334155" font-size="14">? run npm test</text>
    <rect x="22" y="210" width="118" height="8" rx="4" fill="#7DD3FC"/>
    <rect x="150" y="210" width="74" height="8" rx="4" fill="#CBD5E1"/>
  </g>
</svg>
