<svg width="1120" height="420" viewBox="0 0 1120 420" fill="none" xmlns="http://www.w3.org/2000/svg">
  <rect width="1120" height="420" fill="#101418"/>
  <rect x="44" y="44" width="1032" height="332" rx="22" fill="#F5F7FA"/>
  <rect x="44" y="44" width="1032" height="86" rx="22" fill="#141A22"/>
  <text x="80" y="94" fill="#BFE88A" font-family="-apple-system,BlinkMacSystemFont,'Segoe UI','PingFang SC','Microsoft YaHei',sans-serif" font-size="16" font-weight="800" letter-spacing="2">AIPM CORE SKILLS</text>
  <text x="80" y="180" fill="#121820" font-family="-apple-system,BlinkMacSystemFont,'Segoe UI','PingFang SC','Microsoft YaHei',sans-serif" font-size="48" font-weight="900">把 AI 产品判断沉淀成 5 个本地 skill</text>
  <text x="82" y="222" fill="#596474" font-family="-apple-system,BlinkMacSystemFont,'Segoe UI','PingFang SC','Microsoft YaHei',sans-serif" font-size="20">体验审查、PRD 评审、Agent 取舍、BadCase 诊断、AI Coding 交接。</text>
  <g transform="translate(78 268)" font-family="-apple-system,BlinkMacSystemFont,'Segoe UI','PingFang SC','Microsoft YaHei',sans-serif">
    <g>
      <rect width="172" height="66" rx="14" fill="#FFFFFF" stroke="#D9E1EA"/>
      <text x="22" y="30" fill="#121820" font-size="18" font-weight="900">UX Review</text>
      <text x="22" y="50" fill="#64748B" font-size="13">可信 · 可控 · 可恢复</text>
    </g>
    <g transform="translate(190 0)">
      <rect width="172" height="66" rx="14" fill="#FFFFFF" stroke="#D9E1EA"/>
      <text x="22" y="30" fill="#121820" font-size="18" font-weight="900">PRD Review</text>
      <text x="22" y="50" fill="#64748B" font-size="13">边界 · 兜底 · 验收</text>
    </g>
    <g transform="translate(380 0)">
      <rect width="172" height="66" rx="14" fill="#FFFFFF" stroke="#D9E1EA"/>
      <text x="22" y="30" fill="#121820" font-size="18" font-weight="900">Agent Fit</text>
      <text x="22" y="50" fill="#64748B" font-size="13">是否真的需要 Agent</text>
    </g>
    <g transform="translate(570 0)">
      <rect width="172" height="66" rx="14" fill="#FFFFFF" stroke="#D9E1EA"/>
      <text x="22" y="30" fill="#121820" font-size="18" font-weight="900">BadCase</text>
      <text x="22" y="50" fill="#64748B" font-size="13">归因 · 优先级 · 修复</text>
    </g>
    <g transform="translate(760 0)">
      <rect width="172" height="66" rx="14" fill="#FFFFFF" stroke="#D9E1EA"/>
      <text x="22" y="30" fill="#121820" font-size="18" font-weight="900">Handoff</text>
      <text x="22" y="50" fill="#64748B" font-size="13">给 AI Coding 的任务包</text>
    </g>
  </g>
  <g transform="translate(822 58)">
    <rect width="196" height="48" rx="12" fill="#202838"/>
    <text x="24" y="31" fill="#E7EEF7" font-family="-apple-system,BlinkMacSystemFont,'Segoe UI','PingFang SC','Microsoft YaHei',sans-serif" font-size="15" font-weight="800">open source skills</text>
  </g>
</svg>
