<svg width="1120" height="420" viewBox="0 0 1120 420" fill="none" xmlns="http://www.w3.org/2000/svg">
  <rect width="1120" height="420" fill="#F2F5F8"/>
  <rect x="54" y="48" width="1012" height="324" rx="24" fill="#FFFFFF" stroke="#D9E1EA"/>
  <text x="88" y="102" fill="#46617A" font-family="-apple-system,BlinkMacSystemFont,'Segoe UI','PingFang SC','Microsoft YaHei',sans-serif" font-size="17" font-weight="900" letter-spacing="2">AI PM TOOLKIT</text>
  <text x="88" y="170" fill="#111827" font-family="-apple-system,BlinkMacSystemFont,'Segoe UI','PingFang SC','Microsoft YaHei',sans-serif" font-size="46" font-weight="900">给 AI 产品工作的开源模板</text>
  <text x="90" y="214" fill="#5F6E7E" font-family="-apple-system,BlinkMacSystemFont,'Segoe UI','PingFang SC','Microsoft YaHei',sans-serif" font-size="20">BadCase 诊断、CLAUDE.md 配置、上线检查清单，直接复制到飞书 / Notion / Excel 使用。</text>
  <g transform="translate(88 262)" font-family="-apple-system,BlinkMacSystemFont,'Segoe UI','PingFang SC','Microsoft YaHei',sans-serif">
    <rect width="282" height="70" rx="16" fill="#F7FAFC" stroke="#D9E1EA"/>
    <rect x="20" y="18" width="34" height="34" rx="10" fill="#FFE7D1"/>
    <text x="70" y="31" fill="#111827" font-size="18" font-weight="900">BadCase 诊断记录表</text>
    <text x="70" y="52" fill="#64748B" font-size="13">归因 · 优先级 · 修复跟踪</text>
    <g transform="translate(304 0)">
      <rect width="282" height="70" rx="16" fill="#F7FAFC" stroke="#D9E1EA"/>
      <rect x="20" y="18" width="34" height="34" rx="10" fill="#E2EDFF"/>
      <text x="70" y="31" fill="#111827" font-size="18" font-weight="900">CLAUDE.md for AI PM</text>
      <text x="70" y="52" fill="#64748B" font-size="13">让 Claude 理解产品上下文</text>
    </g>
    <g transform="translate(608 0)">
      <rect width="282" height="70" rx="16" fill="#F7FAFC" stroke="#D9E1EA"/>
      <rect x="20" y="18" width="34" height="34" rx="10" fill="#DCFCE7"/>
      <text x="70" y="31" fill="#111827" font-size="18" font-weight="900">Launch Checklist</text>
      <text x="70" y="52" fill="#64748B" font-size="13">6 维度 · 45 项检查</text>
    </g>
  </g>
  <g transform="translate(846 68)">
    <rect width="160" height="112" rx="18" fill="#111827"/>
    <rect x="22" y="24" width="72" height="10" rx="5" fill="#BFE88A"/>
    <rect x="22" y="50" width="116" height="8" rx="4" fill="#526071"/>
    <rect x="22" y="72" width="92" height="8" rx="4" fill="#526071"/>
  </g>
</svg>
